<?xml version="1.0" encoding="UTF-8"?>
<svg id="Warstwa_2" data-name="Warstwa 2" xmlns="http://www.w3.org/2000/svg" viewBox="0 0 119.96 176.19">
  <defs>
    <style>
      .cls-1 {
        fill: #3b3634;
      }
    </style>
  </defs>
  <g id="Warstwa_1-2" data-name="Warstwa 1">
    <path class="cls-1" d="M116.93,170.69l-.21-.06c-9.46-1.45-12.02-4.02-14.42-13.53-.18-.95-2.07-8.01-4.95-19.57-6.21-24.52-16.1-63.67-22.89-90.49-1.27-5.09-2.7-10.72-4.11-16.3l-6.74-27.06c-.31-1.53-.81-2.54-1.5-3-.69-.46-1.42-.69-2.19-.69-.62,0-1.27.23-1.96.69s-1.19,1.46-1.5,3l-4.41,17.77-.07.02c-9.73,38.65-32.99,131.02-33.54,133.22-.01.06-.07.27-.21.79-.05.19-.11.42-.18.66-1.96,6.21-3.51,11.44-9.8,13.38-1.6.51-3.9.74-5.6,1.28-2.29.47-3.84,3.51-1.43,4.79,1.02.42,1.87.5,2.59.51h33.64c.9,0,2.71-.22,3.17-1.25,1.89-4.21-4.28-4.28-6.14-4.59-2.77-.46-6.17-1.03-7.85-3.87-1.62-2.72-.19-6.19.92-8.68,2.53-5.66,6.88-10.27,11.47-14.33,9.45-8.35,21.5-14.97,28.16-26.03,2.44-4.06,3.83-8.63,3.88-13.38,1.22,5.21,2.43,10.41,3.63,15.6,4.18,12.88,6.9,26.19,10.25,39.28,1.77,7.33,1.67,11.1-7.16,11.49-1.79.26-4.05.15-5.5,1.26-1.37,1.06-1.09,3.56.65,4.14,3.09.89,39.65.13,43.28.37,4.54.19,5.2-4.23.73-5.42ZM31.72,132.88c1.34-4.88,2.71-9.75,4.04-14.64,5.6-25.44,12.22-50.6,18.62-75.86.35-1.48,1.55-1.72,1.92,0,3.78,15.35,7.5,30.84,11.16,46.35,4.62,23.12-22.07,29.74-35.75,44.16Z"/>
  </g>
</svg>