<svg xmlns="http://www.w3.org/2000/svg" xmlns:xlink="http://www.w3.org/1999/xlink" width="4000" zoomAndPan="magnify" viewBox="0 0 3000 749.999995" height="1000" preserveAspectRatio="xMidYMid meet" version="1.0"><defs><g/></defs><g fill="#53290a" fill-opacity="1"><g transform="translate(0.0579086, 618.27409)"><g><path d="M 117.578125 0 L 9.875 0 C 20.09375 -33.59375 29.644531 -64.960938 38.53125 -94.109375 C 47.425781 -123.265625 55.90625 -151.179688 63.96875 -177.859375 C 72.039062 -204.535156 80.113281 -231.210938 88.1875 -257.890625 C 96.257812 -284.566406 104.65625 -312.148438 113.375 -340.640625 C 122.101562 -369.128906 131.410156 -399.84375 141.296875 -432.78125 C 144.921875 -444.3125 149.53125 -455.097656 155.125 -465.140625 C 160.726562 -475.191406 167.894531 -483.34375 176.625 -489.59375 C 185.351562 -495.851562 195.644531 -498.984375 207.5 -498.984375 C 219.6875 -498.984375 230.0625 -495.851562 238.625 -489.59375 C 247.1875 -483.34375 254.347656 -475.191406 260.109375 -465.140625 C 265.878906 -455.097656 270.410156 -444.3125 273.703125 -432.78125 C 283.578125 -399.84375 292.878906 -369.128906 301.609375 -340.640625 C 310.335938 -312.148438 318.738281 -284.566406 326.8125 -257.890625 C 334.882812 -231.210938 343.035156 -204.535156 351.265625 -177.859375 C 359.503906 -151.179688 367.984375 -123.265625 376.703125 -94.109375 C 385.429688 -64.960938 394.90625 -33.59375 405.125 0 L 329.53125 0 C 319.320312 -34.25 309.851562 -65.945312 301.125 -95.09375 C 292.394531 -124.25 284.078125 -152.332031 276.171875 -179.34375 L 111.15625 -179.34375 C 110.5 -152 110.332031 -126.140625 110.65625 -101.765625 C 110.988281 -77.398438 111.8125 -56.238281 113.125 -38.28125 C 114.445312 -20.332031 115.929688 -7.570312 117.578125 0 Z M 111.65625 -186.75 L 273.703125 -186.75 C 266.128906 -212.769531 258.390625 -238.539062 250.484375 -264.0625 C 242.578125 -289.59375 234.421875 -316.191406 226.015625 -343.859375 C 217.617188 -371.523438 208.316406 -401.164062 198.109375 -432.78125 C 196.460938 -438.382812 194.15625 -442.832031 191.1875 -446.125 C 188.226562 -449.414062 183.945312 -451.0625 178.34375 -451.0625 C 169.457031 -451.0625 161.554688 -445.957031 154.640625 -435.75 C 147.722656 -425.539062 141.789062 -411.625 136.84375 -394 C 131.90625 -376.382812 127.707031 -356.296875 124.25 -333.734375 C 120.789062 -311.171875 118.070312 -287.289062 116.09375 -262.09375 C 114.125 -236.894531 112.644531 -211.78125 111.65625 -186.75 Z M 111.65625 -186.75 "/></g></g></g><g fill="#53290a" fill-opacity="1"><g transform="translate(415.05449, 618.27409)"><g><path d="M 106.21875 0 L 34.578125 0 L 34.578125 -494.046875 L 285.0625 -494.046875 C 303.175781 -494.046875 318.078125 -489.765625 329.765625 -481.203125 C 341.460938 -472.640625 350.273438 -461.851562 356.203125 -448.84375 C 362.128906 -435.832031 365.09375 -422.578125 365.09375 -409.078125 C 365.09375 -389.304688 361.140625 -372.421875 353.234375 -358.421875 C 345.335938 -344.429688 335.210938 -332.578125 322.859375 -322.859375 C 310.503906 -313.140625 297.328125 -305.066406 283.328125 -298.640625 C 269.335938 -292.222656 256.164062 -286.625 243.8125 -281.84375 C 231.457031 -277.070312 221.328125 -272.628906 213.421875 -268.515625 C 205.523438 -264.398438 201.578125 -259.867188 201.578125 -254.921875 C 201.578125 -249.984375 204.289062 -241.832031 209.71875 -230.46875 C 215.15625 -219.101562 222.566406 -205.679688 231.953125 -190.203125 C 241.335938 -174.722656 251.796875 -158.5 263.328125 -141.53125 C 274.859375 -124.570312 286.796875 -107.859375 299.140625 -91.390625 C 311.492188 -74.929688 323.351562 -60.03125 334.71875 -46.6875 C 346.082031 -33.34375 356.375 -22.71875 365.59375 -14.8125 C 374.8125 -6.914062 381.894531 -2.96875 386.84375 -2.96875 L 386.84375 0 L 305.328125 0 C 295.773438 0 288.441406 -0.820312 283.328125 -2.46875 C 278.222656 -4.113281 273.363281 -7.570312 268.75 -12.84375 C 264.144531 -18.113281 257.5625 -26.347656 249 -37.546875 C 240.769531 -48.410156 231.878906 -60.675781 222.328125 -74.34375 C 212.773438 -88.019531 203.382812 -102.101562 194.15625 -116.59375 C 184.9375 -131.082031 176.535156 -145.078125 168.953125 -158.578125 C 161.378906 -172.085938 155.367188 -184.359375 150.921875 -195.390625 C 146.484375 -206.429688 144.265625 -215.078125 144.265625 -221.328125 C 144.265625 -229.234375 147.882812 -236.316406 155.125 -242.578125 C 162.375 -248.835938 171.597656 -255.09375 182.796875 -261.34375 C 193.992188 -267.601562 206.015625 -274.601562 218.859375 -282.34375 C 231.703125 -290.082031 243.722656 -299.304688 254.921875 -310.015625 C 266.117188 -320.722656 275.34375 -333.816406 282.59375 -349.296875 C 289.84375 -364.773438 293.46875 -383.21875 293.46875 -404.625 C 293.46875 -420.101562 290.75 -434.015625 285.3125 -446.359375 C 279.875 -458.710938 271.144531 -468.515625 259.125 -475.765625 C 247.101562 -483.015625 231.378906 -486.640625 211.953125 -486.640625 L 106.21875 -486.640625 Z M 106.21875 0 "/></g></g></g><g fill="#53290a" fill-opacity="1"><g transform="translate(801.890611, 618.27409)"><g><path d="M 14.828125 -413.015625 L 14.828125 -494.046875 L 365.09375 -494.046875 L 365.09375 -413.015625 C 354.226562 -424.222656 340.722656 -435.175781 324.578125 -445.875 C 308.441406 -456.582031 291.644531 -465.722656 274.1875 -473.296875 C 256.738281 -480.867188 240.601562 -485.148438 225.78125 -486.140625 L 225.78125 0 L 154.140625 0 L 154.140625 -486.140625 C 139.316406 -485.148438 123.175781 -480.867188 105.71875 -473.296875 C 88.269531 -465.722656 71.472656 -456.582031 55.328125 -445.875 C 39.191406 -435.175781 25.691406 -424.222656 14.828125 -413.015625 Z M 14.828125 -413.015625 "/></g></g></g><g fill="#53290a" fill-opacity="1"><g transform="translate(1181.810128, 618.27409)"><g><path d="M 214.90625 4.9375 C 175.71875 4.9375 141.460938 -5.597656 112.140625 -26.671875 C 82.828125 -47.753906 60.101562 -77.148438 43.96875 -114.859375 C 27.832031 -152.578125 19.765625 -196.632812 19.765625 -247.03125 C 19.765625 -297.414062 27.832031 -341.460938 43.96875 -379.171875 C 60.101562 -416.890625 82.828125 -446.285156 112.140625 -467.359375 C 141.460938 -488.441406 175.71875 -498.984375 214.90625 -498.984375 C 244.21875 -498.984375 270.8125 -492.972656 294.6875 -480.953125 C 318.570312 -468.929688 339.160156 -451.800781 356.453125 -429.5625 C 373.742188 -407.332031 387 -380.820312 396.21875 -350.03125 C 405.445312 -319.238281 410.0625 -284.90625 410.0625 -247.03125 C 410.0625 -209.144531 405.445312 -174.804688 396.21875 -144.015625 C 387 -113.222656 373.742188 -86.707031 356.453125 -64.46875 C 339.160156 -42.238281 318.570312 -25.113281 294.6875 -13.09375 C 270.8125 -1.070312 244.21875 4.9375 214.90625 4.9375 Z M 96.828125 -247.515625 C 96.828125 -198.441406 101.6875 -155.539062 111.40625 -118.8125 C 121.125 -82.09375 134.875 -53.519531 152.65625 -33.09375 C 170.445312 -12.675781 191.035156 -2.46875 214.421875 -2.46875 C 238.128906 -2.46875 258.875 -12.675781 276.65625 -33.09375 C 294.445312 -53.519531 308.28125 -82.09375 318.15625 -118.8125 C 328.039062 -155.539062 332.984375 -198.441406 332.984375 -247.515625 C 332.984375 -296.585938 328.039062 -339.40625 318.15625 -375.96875 C 308.28125 -412.53125 294.445312 -441.019531 276.65625 -461.4375 C 258.875 -481.863281 238.128906 -492.078125 214.421875 -492.078125 C 191.035156 -492.078125 170.445312 -481.863281 152.65625 -461.4375 C 134.875 -441.019531 121.125 -412.53125 111.40625 -375.96875 C 101.6875 -339.40625 96.828125 -296.585938 96.828125 -247.515625 Z M 96.828125 -247.515625 "/></g></g></g><g fill="#53290a" fill-opacity="1"><g transform="translate(1611.627965, 618.27409)"><g><path d="M 9.875 -494.046875 L 117.578125 -494.046875 C 115.929688 -486.796875 114.613281 -474.9375 113.625 -458.46875 C 112.644531 -442 112.070312 -422.316406 111.90625 -399.421875 C 111.738281 -376.535156 112.066406 -352.082031 112.890625 -326.0625 C 113.710938 -300.050781 115.191406 -273.703125 117.328125 -247.015625 C 119.472656 -220.335938 122.191406 -194.8125 125.484375 -170.4375 C 128.773438 -146.070312 132.804688 -124.335938 137.578125 -105.234375 C 142.359375 -86.128906 147.960938 -70.976562 154.390625 -59.78125 C 160.816406 -48.582031 168.144531 -42.984375 176.375 -42.984375 C 181.976562 -42.984375 186.425781 -44.300781 189.71875 -46.9375 C 193.007812 -49.570312 195.804688 -54.347656 198.109375 -61.265625 C 208.648438 -94.203125 218.285156 -124.914062 227.015625 -153.40625 C 235.742188 -181.894531 244.140625 -209.394531 252.203125 -235.90625 C 260.273438 -262.414062 268.265625 -289.09375 276.171875 -315.9375 C 284.078125 -342.78125 292.394531 -370.773438 301.125 -399.921875 C 309.851562 -429.078125 319.320312 -460.453125 329.53125 -494.046875 L 405.125 -494.046875 C 394.90625 -460.453125 385.429688 -429.078125 376.703125 -399.921875 C 367.984375 -370.773438 359.503906 -342.863281 351.265625 -316.1875 C 343.035156 -289.507812 334.882812 -262.832031 326.8125 -236.15625 C 318.738281 -209.476562 310.335938 -181.894531 301.609375 -153.40625 C 292.878906 -124.914062 283.578125 -94.203125 273.703125 -61.265625 C 270.410156 -50.066406 265.878906 -39.359375 260.109375 -29.140625 C 254.347656 -18.929688 247.1875 -10.695312 238.625 -4.4375 C 230.0625 1.8125 219.6875 4.9375 207.5 4.9375 C 195.644531 4.9375 185.351562 1.8125 176.625 -4.4375 C 167.894531 -10.695312 160.726562 -18.929688 155.125 -29.140625 C 149.53125 -39.359375 144.921875 -50.066406 141.296875 -61.265625 C 131.085938 -94.203125 121.703125 -124.914062 113.140625 -153.40625 C 104.578125 -181.894531 96.257812 -209.476562 88.1875 -236.15625 C 80.113281 -262.832031 72.039062 -289.507812 63.96875 -316.1875 C 55.90625 -342.863281 47.425781 -370.773438 38.53125 -399.921875 C 29.644531 -429.078125 20.09375 -460.453125 9.875 -494.046875 Z M 9.875 -494.046875 "/></g></g></g><g fill="#53290a" fill-opacity="1"><g transform="translate(2026.62449, 618.27409)"><g><path d="M 34.578125 0 L 34.578125 -494.046875 C 37.210938 -495.691406 40.753906 -496.925781 45.203125 -497.75 C 49.648438 -498.570312 53.519531 -498.984375 56.8125 -498.984375 C 71.632812 -498.984375 84.394531 -495.769531 95.09375 -489.34375 C 105.800781 -482.925781 115.679688 -473.128906 124.734375 -459.953125 C 133.796875 -446.785156 143.347656 -430.15625 153.390625 -410.0625 C 163.441406 -389.96875 174.972656 -366.332031 187.984375 -339.15625 C 200.992188 -311.988281 216.722656 -281.28125 235.171875 -247.03125 C 259.867188 -201.238281 280.613281 -165.582031 297.40625 -140.0625 C 314.207031 -114.539062 327.878906 -96.015625 338.421875 -84.484375 C 347.316406 -74.929688 354.316406 -69 359.421875 -66.6875 C 364.523438 -64.382812 368.226562 -63.726562 370.53125 -64.71875 C 372.84375 -65.707031 374 -66.203125 374 -66.203125 C 374 -127.796875 370.539062 -183.867188 363.625 -234.421875 C 356.707031 -284.984375 346.332031 -331.503906 332.5 -373.984375 C 318.664062 -416.472656 301.207031 -456.492188 280.125 -494.046875 L 382.890625 -494.046875 L 382.890625 0 C 380.253906 1.3125 376.796875 2.460938 372.515625 3.453125 C 368.234375 4.441406 364.28125 4.9375 360.65625 4.9375 C 345.5 4.9375 330.097656 -0.820312 314.453125 -12.34375 C 298.816406 -23.875 283.007812 -39.6875 267.03125 -59.78125 C 251.0625 -79.875 235.253906 -102.847656 219.609375 -128.703125 C 203.960938 -154.554688 188.5625 -181.972656 173.40625 -210.953125 C 149.695312 -256.078125 130.59375 -293.378906 116.09375 -322.859375 C 101.601562 -352.335938 90.738281 -373.992188 83.5 -387.828125 C 76.582031 -401.003906 70.566406 -410.800781 65.453125 -417.21875 C 60.347656 -423.644531 56.234375 -427.84375 53.109375 -429.8125 C 49.984375 -431.789062 47.59375 -432.613281 45.9375 -432.28125 C 44.289062 -431.957031 43.46875 -431.796875 43.46875 -431.796875 C 43.46875 -368.890625 46.925781 -311.910156 53.84375 -260.859375 C 60.757812 -209.804688 71.21875 -162.953125 85.21875 -120.296875 C 99.21875 -77.648438 116.59375 -37.550781 137.34375 0 Z M 34.578125 0 "/></g></g></g><g fill="#53290a" fill-opacity="1"><g transform="translate(2444.091404, 618.27409)"><g><path d="M 34.578125 0 L 34.578125 -494.046875 L 106.21875 -494.046875 L 106.21875 0 Z M 34.578125 0 "/></g></g></g><g fill="#53290a" fill-opacity="1"><g transform="translate(2584.893815, 618.27409)"><g><path d="M 117.578125 0 L 9.875 0 C 20.09375 -33.59375 29.644531 -64.960938 38.53125 -94.109375 C 47.425781 -123.265625 55.90625 -151.179688 63.96875 -177.859375 C 72.039062 -204.535156 80.113281 -231.210938 88.1875 -257.890625 C 96.257812 -284.566406 104.65625 -312.148438 113.375 -340.640625 C 122.101562 -369.128906 131.410156 -399.84375 141.296875 -432.78125 C 144.921875 -444.3125 149.53125 -455.097656 155.125 -465.140625 C 160.726562 -475.191406 167.894531 -483.34375 176.625 -489.59375 C 185.351562 -495.851562 195.644531 -498.984375 207.5 -498.984375 C 219.6875 -498.984375 230.0625 -495.851562 238.625 -489.59375 C 247.1875 -483.34375 254.347656 -475.191406 260.109375 -465.140625 C 265.878906 -455.097656 270.410156 -444.3125 273.703125 -432.78125 C 283.578125 -399.84375 292.878906 -369.128906 301.609375 -340.640625 C 310.335938 -312.148438 318.738281 -284.566406 326.8125 -257.890625 C 334.882812 -231.210938 343.035156 -204.535156 351.265625 -177.859375 C 359.503906 -151.179688 367.984375 -123.265625 376.703125 -94.109375 C 385.429688 -64.960938 394.90625 -33.59375 405.125 0 L 329.53125 0 C 319.320312 -34.25 309.851562 -65.945312 301.125 -95.09375 C 292.394531 -124.25 284.078125 -152.332031 276.171875 -179.34375 L 111.15625 -179.34375 C 110.5 -152 110.332031 -126.140625 110.65625 -101.765625 C 110.988281 -77.398438 111.8125 -56.238281 113.125 -38.28125 C 114.445312 -20.332031 115.929688 -7.570312 117.578125 0 Z M 111.65625 -186.75 L 273.703125 -186.75 C 266.128906 -212.769531 258.390625 -238.539062 250.484375 -264.0625 C 242.578125 -289.59375 234.421875 -316.191406 226.015625 -343.859375 C 217.617188 -371.523438 208.316406 -401.164062 198.109375 -432.78125 C 196.460938 -438.382812 194.15625 -442.832031 191.1875 -446.125 C 188.226562 -449.414062 183.945312 -451.0625 178.34375 -451.0625 C 169.457031 -451.0625 161.554688 -445.957031 154.640625 -435.75 C 147.722656 -425.539062 141.789062 -411.625 136.84375 -394 C 131.90625 -376.382812 127.707031 -356.296875 124.25 -333.734375 C 120.789062 -311.171875 118.070312 -287.289062 116.09375 -262.09375 C 114.125 -236.894531 112.644531 -211.78125 111.65625 -186.75 Z M 111.65625 -186.75 "/></g></g></g></svg>