<svg xmlns="http://www.w3.org/2000/svg" xmlns:xlink="http://www.w3.org/1999/xlink" width="2000" zoomAndPan="magnify" viewBox="0 0 1500 1499.999933" height="2000" preserveAspectRatio="xMidYMid meet" version="1.0"><defs><g/><clipPath id="90157909c5"><path d="M 72.167969 72.167969 L 1427.832031 72.167969 L 1427.832031 1427.828125 L 72.167969 1427.828125 Z M 72.167969 72.167969 " clip-rule="nonzero"/></clipPath><clipPath id="29b42bc133"><path d="M 142.667969 72.167969 L 1357.332031 72.167969 C 1396.265625 72.167969 1427.832031 103.734375 1427.832031 142.667969 L 1427.832031 1357.328125 C 1427.832031 1396.265625 1396.265625 1427.828125 1357.332031 1427.828125 L 142.667969 1427.828125 C 103.734375 1427.828125 72.167969 1396.265625 72.167969 1357.328125 L 72.167969 142.667969 C 72.167969 103.734375 103.734375 72.167969 142.667969 72.167969 Z M 142.667969 72.167969 " clip-rule="nonzero"/></clipPath><clipPath id="e3373abcda"><path d="M 0.167969 0.167969 L 1355.832031 0.167969 L 1355.832031 1355.828125 L 0.167969 1355.828125 Z M 0.167969 0.167969 " clip-rule="nonzero"/></clipPath><clipPath id="f9437ac26e"><path d="M 70.667969 0.167969 L 1285.332031 0.167969 C 1324.265625 0.167969 1355.832031 31.734375 1355.832031 70.667969 L 1355.832031 1285.328125 C 1355.832031 1324.265625 1324.265625 1355.828125 1285.332031 1355.828125 L 70.667969 1355.828125 C 31.734375 1355.828125 0.167969 1324.265625 0.167969 1285.328125 L 0.167969 70.667969 C 0.167969 31.734375 31.734375 0.167969 70.667969 0.167969 Z M 70.667969 0.167969 " clip-rule="nonzero"/></clipPath><clipPath id="39226bff8d"><rect x="0" width="1356" y="0" height="1356"/></clipPath><clipPath id="e91d790521"><rect x="0" width="1056" y="0" height="1392"/></clipPath></defs><g clip-path="url(#90157909c5)"><g clip-path="url(#29b42bc133)"><g transform="matrix(1, 0, 0, 1, 72, 72)"><g clip-path="url(#39226bff8d)"><g clip-path="url(#e3373abcda)"><g clip-path="url(#f9437ac26e)"><path fill="#f4f0eb" d="M 0.167969 0.167969 L 1355.832031 0.167969 L 1355.832031 1355.828125 L 0.167969 1355.828125 Z M 0.167969 0.167969 " fill-opacity="1" fill-rule="nonzero"/></g></g></g></g></g></g><g transform="matrix(1, 0, 0, 1, 222, 108)"><g clip-path="url(#e91d790521)"><g fill="#3b3634" fill-opacity="1"><g transform="translate(1.059096, 1275.305635)"><g><path d="M 298.578125 0 L 25.09375 0 C 51.019531 -85.300781 75.269531 -164.957031 97.84375 -238.96875 C 120.425781 -312.988281 141.960938 -383.867188 162.453125 -451.609375 C 182.941406 -519.359375 203.429688 -587.101562 223.921875 -654.84375 C 244.410156 -722.59375 265.738281 -792.632812 287.90625 -864.96875 C 310.070312 -937.3125 333.695312 -1015.300781 358.78125 -1098.9375 C 367.988281 -1128.207031 379.695312 -1155.597656 393.90625 -1181.109375 C 408.125 -1206.617188 426.316406 -1227.316406 448.484375 -1243.203125 C 470.648438 -1259.097656 496.785156 -1267.046875 526.890625 -1267.046875 C 557.835938 -1267.046875 584.179688 -1259.097656 605.921875 -1243.203125 C 627.671875 -1227.316406 645.863281 -1206.617188 660.5 -1181.109375 C 675.132812 -1155.597656 686.632812 -1128.207031 695 -1098.9375 C 720.082031 -1015.300781 743.703125 -937.3125 765.859375 -864.96875 C 788.023438 -792.632812 809.351562 -722.59375 829.84375 -654.84375 C 850.34375 -587.101562 871.046875 -519.359375 891.953125 -451.609375 C 912.859375 -383.867188 934.390625 -312.988281 956.546875 -238.96875 C 978.710938 -164.957031 1002.757812 -85.300781 1028.6875 0 L 836.75 0 C 810.820312 -86.976562 786.773438 -167.472656 764.609375 -241.484375 C 742.453125 -315.503906 721.335938 -386.804688 701.265625 -455.390625 L 282.265625 -455.390625 C 280.585938 -385.972656 280.164062 -320.316406 281 -258.421875 C 281.84375 -196.535156 283.9375 -142.800781 287.28125 -97.21875 C 290.625 -51.644531 294.390625 -19.238281 298.578125 0 Z M 283.515625 -474.203125 L 695 -474.203125 C 675.757812 -540.273438 656.101562 -605.71875 636.03125 -670.53125 C 615.957031 -735.34375 595.253906 -802.875 573.921875 -873.125 C 552.597656 -943.382812 528.972656 -1018.65625 503.046875 -1098.9375 C 498.867188 -1113.15625 493.015625 -1124.445312 485.484375 -1132.8125 C 477.960938 -1141.175781 467.09375 -1145.359375 452.875 -1145.359375 C 430.289062 -1145.359375 410.21875 -1132.394531 392.65625 -1106.46875 C 375.09375 -1080.539062 360.035156 -1045.203125 347.484375 -1000.453125 C 334.941406 -955.710938 324.28125 -904.695312 315.5 -847.40625 C 306.71875 -790.125 299.816406 -729.492188 294.796875 -665.515625 C 289.785156 -601.535156 286.023438 -537.765625 283.515625 -474.203125 Z M 283.515625 -474.203125 "/></g></g></g></g></g></svg>