<svg xmlns="http://www.w3.org/2000/svg" version="1.1" xmlns:xlink="http://www.w3.org/1999/xlink" width="2000" height="2000"><svg xmlns="http://www.w3.org/2000/svg" version="1.1" xmlns:xlink="http://www.w3.org/1999/xlink" width="2000" height="2000"><svg xmlns="http://www.w3.org/2000/svg" xmlns:xlink="http://www.w3.org/1999/xlink" width="2000" zoomAndPan="magnify" viewBox="0 0 1500 1499.999933" height="2000" preserveAspectRatio="xMidYMid meet" version="1.0"><defs><clipPath id="68168f42c2"><path d="M 72.167969 72.167969 L 1427.832031 72.167969 L 1427.832031 1427.828125 L 72.167969 1427.828125 Z M 72.167969 72.167969 " clip-rule="nonzero"></path></clipPath><clipPath id="5b7cd2cd6b"><path d="M 142.667969 72.167969 L 1357.332031 72.167969 C 1396.265625 72.167969 1427.832031 103.734375 1427.832031 142.667969 L 1427.832031 1357.328125 C 1427.832031 1396.265625 1396.265625 1427.828125 1357.332031 1427.828125 L 142.667969 1427.828125 C 103.734375 1427.828125 72.167969 1396.265625 72.167969 1357.328125 L 72.167969 142.667969 C 72.167969 103.734375 103.734375 72.167969 142.667969 72.167969 Z M 142.667969 72.167969 " clip-rule="nonzero"></path></clipPath><clipPath id="198bacc644"><path d="M 0.167969 0.167969 L 1355.832031 0.167969 L 1355.832031 1355.828125 L 0.167969 1355.828125 Z M 0.167969 0.167969 " clip-rule="nonzero"></path></clipPath><clipPath id="74a0bac525"><path d="M 70.667969 0.167969 L 1285.332031 0.167969 C 1324.265625 0.167969 1355.832031 31.734375 1355.832031 70.667969 L 1355.832031 1285.328125 C 1355.832031 1324.265625 1324.265625 1355.828125 1285.332031 1355.828125 L 70.667969 1355.828125 C 31.734375 1355.828125 0.167969 1324.265625 0.167969 1285.328125 L 0.167969 70.667969 C 0.167969 31.734375 31.734375 0.167969 70.667969 0.167969 Z M 70.667969 0.167969 " clip-rule="nonzero"></path></clipPath><clipPath id="d0bc28675e"><rect x="0" width="1356" y="0" height="1356"></rect></clipPath><clipPath id="8f112ecea2"><path d="M 311 105.394531 L 1189 105.394531 L 1189 1394.644531 L 311 1394.644531 Z M 311 105.394531 " clip-rule="nonzero"></path></clipPath></defs><g clip-path="url(#68168f42c2)"><g clip-path="url(#5b7cd2cd6b)"><g transform="matrix(1, 0, 0, 1, 72, 72)"><g clip-path="url(#d0bc28675e)"><g clip-path="url(#198bacc644)"><g clip-path="url(#74a0bac525)"><path fill="#f4f0eb" d="M 0.167969 0.167969 L 1355.832031 0.167969 L 1355.832031 1355.828125 L 0.167969 1355.828125 Z M 0.167969 0.167969 " fill-opacity="1" fill-rule="nonzero"></path></g></g></g></g></g></g><g clip-path="url(#8f112ecea2)"><path fill="#3b3634" d="M 1166.707031 1354.398438 L 1165.167969 1353.960938 C 1095.949219 1343.347656 1077.21875 1324.542969 1059.65625 1254.953125 C 1058.339844 1248.003906 1044.511719 1196.34375 1023.4375 1111.753906 C 977.996094 932.332031 905.632812 645.855469 855.949219 449.605469 C 846.65625 412.359375 836.191406 371.160156 825.875 330.332031 L 776.558594 132.320312 C 774.289062 121.125 770.628906 113.734375 765.582031 110.371094 C 760.53125 107.003906 755.191406 105.320312 749.558594 105.320312 C 745.019531 105.320312 740.265625 107.003906 735.214844 110.371094 C 730.167969 113.734375 726.507812 121.054688 724.238281 132.320312 L 691.972656 262.351562 L 691.460938 262.5 C 620.261719 545.316406 450.066406 1221.222656 446.042969 1237.320312 C 445.96875 1237.757812 445.53125 1239.296875 444.507812 1243.101562 C 444.140625 1244.492188 443.703125 1246.175781 443.1875 1247.929688 C 428.847656 1293.371094 417.507812 1331.640625 371.480469 1345.835938 C 359.773438 1349.570312 342.945312 1351.25 330.503906 1355.203125 C 313.75 1358.640625 302.40625 1380.886719 320.042969 1390.253906 C 327.503906 1393.328125 333.726562 1393.910156 338.992188 1393.984375 L 585.140625 1393.984375 C 591.726562 1393.984375 604.96875 1392.375 608.335938 1384.839844 C 622.164062 1354.03125 577.019531 1353.519531 563.410156 1351.25 C 543.140625 1347.886719 518.261719 1343.714844 505.96875 1322.933594 C 494.117188 1303.03125 504.578125 1277.640625 512.703125 1259.417969 C 531.214844 1218.003906 563.042969 1184.269531 596.628906 1154.558594 C 665.777344 1093.460938 753.945312 1045.019531 802.679688 964.089844 C 820.53125 934.378906 830.703125 900.941406 831.070312 866.183594 C 839.996094 904.304688 848.851562 942.355469 857.628906 980.332031 C 888.214844 1074.582031 908.117188 1171.976562 932.632812 1267.761719 C 945.582031 1321.398438 944.851562 1348.984375 880.242188 1351.835938 C 867.144531 1353.738281 850.605469 1352.933594 839.996094 1361.058594 C 829.972656 1368.8125 832.019531 1387.105469 844.753906 1391.351562 C 867.363281 1397.863281 1134.875 1392.300781 1161.4375 1394.058594 C 1194.65625 1395.449219 1199.488281 1363.105469 1166.777344 1354.398438 Z M 543.214844 1077.726562 C 553.019531 1042.019531 563.042969 1006.382812 572.773438 970.601562 C 613.75 784.445312 662.191406 600.34375 709.019531 415.503906 C 711.582031 404.675781 720.363281 402.917969 723.070312 415.503906 C 750.726562 527.828125 777.945312 641.171875 804.726562 754.664062 C 838.53125 923.84375 643.238281 972.285156 543.140625 1077.800781 Z M 543.214844 1077.726562 " fill-opacity="1" fill-rule="nonzero"></path></g></svg></svg><style>@media (prefers-color-scheme: light) { :root { filter: none; } }
@media (prefers-color-scheme: dark) { :root { filter: none; } }
</style></svg>