<?xml version="1.0" encoding="UTF-8"?>
<svg id="Warstwa_2" data-name="Warstwa 2" xmlns="http://www.w3.org/2000/svg" viewBox="0 0 819.22 177.36">
  <defs>
    <style>
      .cls-1 {
        fill: #3b3634;
      }
    </style>
  </defs>
  <g id="Warstwa_1-2" data-name="Warstwa 1">
    <g>
      <path class="cls-1" d="M227.31,170.97c-13.04-1.59-24.64-10.72-26.38-23.98-.93-6.42-3.49-16.39-4.73-22.75-1.55-7.82-3.99-15.87-8.2-21.35-2.79-3.72-6.4-6.63-10.94-8.86-1.86-.83-2.67-2.41-.44-3.4,3.82-1.49,7.49-3.19,10.8-5.42,27.87-18.02,29.62-60.06-1.06-75.69-11.63-5.85-20.42-6.17-34.37-5.94-11.75.06-27.03-.09-38.74.03-.66.06-1.97.33-2.48.95-1.03,1.16-.7,2.99.72,3.77,2.13,1.12,5.09,1.23,7.32,1.71,5.17.79,6.4,4.91,6.29,9.3v139.9c-.01.24,0,1.15-.06,1.61,0,1.64-.35,3.06-.99,4.23-6.62,4.75-13.12,4.45-18.97,1.33-2.36-1.96-3.67-4.99-4.93-9.98-.18-.93-2.03-7.84-4.85-19.15-6.08-24-15.76-62.32-22.41-88.57-1.45-5.8-3.1-12.32-4.7-18.63h.02s-6.41-26.79-6.41-26.79c-.27-1.37-.69-2.26-1.28-2.67C59.92.21,59.29,0,58.64,0c-.53,0-1.09.21-1.68.62-.59.41-1.02,1.3-1.28,2.67l-5.97,25.09c-10.1,40.1-31.12,123.64-31.65,125.7-.01.05-.07.27-.21.77-.05.19-.11.41-.18.65-1.92,6.08-3.44,11.2-9.6,13.1-1.57.5-3.81.72-5.48,1.25-2.25.46-3.76,3.43-1.4,4.69,1,.41,1.83.49,2.54.5h32.93c.88,0,2.48-.23,3.1-1.22,1.93-5.67-7.04-3.05-12.04-6.46-1.93-1.32-2.8-3.78-2.23-6.05,5.8-23.36,43.81-30.96,44.06-56.87,1.19,5.09,2.38,10.19,3.55,15.27,4.09,12.61,6.75,25.64,10.03,38.45,1.73,7.17,1.64,10.86-7.01,11.24-1.75.25-3.96.15-5.38,1.23-1.34,1.03-1.07,3.49.64,4.05,3.02.87,38.8.13,42.36.36.34.01.64,0,.94-.04,6.59-.04,43.44.12,46.15-.03.43-.05.98-.17,1.41-.33,1.25-.42,1.81-1.65,1.62-2.89-.63-2.94-5.06-2.34-7.58-3.04-4.24-.91-11.65-1.1-13.43-5.3-.66-1.55-.79-3.56-.82-5.2,0-15.64,0-43.65,0-57.83-.41-3.78,1.71-7.13,5.61-7.61,22.27-1.13,26.55,7.78,31.19,28.76.93,4.33,3.26,15.77,5.14,24.69,2.29,14.88,10.43,29.11,27.19,28.49h.21c5.46,0,17.12.26,19.72-.18.78-.21.33-1.36-.08-1.87-.91-1.22-2.33-1.55-3.68-1.7ZM31.05,132.73c1.31-4.77,2.65-9.54,3.96-14.33,5.48-24.9,11.96-49.52,18.23-74.25.34-1.45,1.51-1.69,1.88,0,3.7,15.02,7.34,30.19,10.93,45.36,4.52,22.63-21.61,29.11-34.99,43.22ZM158.11,86.67h-.26c-9.73.21-16.09-4.57-15.77-13.23-.04-10.6.06-49.84,0-54.31-.21-7.92,7.17-9.96,13.97-9.6,16.51.16,29.55,9.17,33.44,25.07,5.3,23.71-3.62,52.89-31.37,52.06Z"/>
      <path class="cls-1" d="M322.8,5.63c-.12-1.62-.78-4.08-2.01-4.87-3.12-2.08-6.18.94-9.39,1.57-3.24.96-6.73,1.19-11.34,1.21-12.6,0-35.7.01-48.17,0-6.55-.11-11.05.28-15.88-.77-2.57-.49-4.81-1.67-7.18-2.54-3.82-1.15-5.69,1.99-5.89,5.33-.12,2.58-1.56,30.97-2.09,42.01-.07,1.31-.2,2.32.35,3.61,1.05,1.9,4.4,1.77,5.43-.1,1.15-2.58,1.05-5.41,1.61-8.2,1.22-9.4,4.65-18.87,9.54-23.94,4.99-5.34,12.27-9.41,18.64-9.43,2.57.06,6.04-.12,7.29,2.56.47.87.7,2.66.7,3.66,0,2.78,0,140.02,0,142.81,0,.94-.13,2.98-.39,3.97-.7,4.54-5.69,5.05-9.61,5.66-3.93.79-7.75.83-10.52,1.91-1.34.63-1.64,2.56-.95,3.66.46.88,1.92,1.14,2.7,1.25h.14c2.47.08,50.35,0,53.71.03,1.15.04,3.42-.47,3.6-2.02.53-2.17-1.47-3.46-3.41-3.53-2.06-.39-8.08-1.15-11-1.74-5.16-.83-7.35-3.23-7.33-8.53-.05-3.27,0-115.48-.02-139.38.05-5.6-.76-9.88,5.58-10.24,7.34-.68,14.36,2.71,20.31,8.35,5.59,5.08,9.23,15.54,10.36,25.46.25,1.64.63,4.17.8,5.31.17,1.4.74,3.25,2.34,3.66,2.98.78,4.54-1.13,4.21-3.93-.11-2.2-2-40.23-2.13-42.82Z"/>
      <path class="cls-1" d="M335.23,54.47c-7.89,32.06-5.32,70.4,12.35,98.29,9.01,13.66,21.73,24.29,38.12,24.39h.22c16.44-.09,28.85-10.77,37.99-24.39,18.07-28.06,20.48-67.32,12.1-99.71-19.65-70.17-82.56-68.47-100.78,1.42ZM385.92,170.73h-.21c-32.48-1.53-35.61-51.82-35.85-80.74.14-28.93,2.73-48.15,10.32-63.59,11.63-24.97,39.61-25.05,51.28-.24,6.01,12.18,8.52,25.69,9.85,45.76,1.43,34.6,1.09,97.12-35.39,98.81Z"/>
      <path class="cls-1" d="M816.25,169.73l-.2-.06c-9.26-1.42-11.77-3.94-14.11-13.25-.18-.93-2.03-7.84-4.85-19.15-6.08-24-15.76-62.32-22.41-88.57-1.45-5.8-3.1-12.32-4.7-18.63h.05s-6.41-26.79-6.41-26.79c-.26-1.37-.69-2.26-1.28-2.67-.59-.41-1.22-.62-1.88-.62-.53,0-1.09.21-1.68.62-.59.41-1.02,1.3-1.28,2.67l-5.51,23.13c-9.89,39.27-31.61,125.57-32.14,127.67-.01.05-.07.27-.21.77-.05.19-.11.41-.18.65-1.96,6.23-5.29,14.55-13.45,13.52-1.48-.19-2.89-.76-4.2-1.47-2.12-1.15-4.03-2.68-5.62-4.49-2.22-2.53-1.33-8.17-1.34-11.44,0-5.36-.01-10.73-.01-16.09,0-15.08,0-30.16,0-45.24,0-15.14,0-30.28.01-45.43,0-8.31.02-16.62,0-24.93,0-.2,0-.39,0-.59,0-2.71.36-6.81,3.15-7.82,1.65-.81,3.73-1.31,5.57-1.64,2.27-.54,5.46-.44,7.27-2.13.79-.83.83-2.16.16-3.05-.52-.77-2.04-1.07-2.68-1.12-1.75-.07-13.28-.04-24.04-.05-1.32-.01-35.21,0-36.74,0-8.75,0-18.73,0-20.18,0-4.4-.18-5.13,4.46-.71,5.43,9.8,1.2,13.69,4.49,13.6,15.15.03,1.34-.04,86.38,0,107.7-.19,2.02-2.18,1.85-2.89.51-10.04-22.03-56.4-123.83-56.26-123.5-.01-.05-.62-1.18-.88-1.51-1.61-2.64-4.79-3.81-7.8-3.77-20.37.61-40.8-.04-61.18.04-2.24,0-3.94,2.41-2.08,4.14,1.13.98,3.15,1.28,4.71,1.5,8.78.46,11.58,5.96,9.2,15.34-.22.96-21.95,87.58-27.39,109.42-.08.39-.46,1.17-1.33,1.32-.75.04-1.37-.81-1.49-1.09-.05-.1-.08-.17-.09-.2-.19-.78-2.5-10.35-5.72-23.68-8.11-33.68-21.41-88.51-22.03-91.28-.37-1.92-.93-5.03-.04-6.92,1.89-5.03,14.7-.41,13.51-6.81-.34-1.39-2.27-1.8-3.31-1.78h-40.41c-.61.01-1.25.07-2.07.33-1.9.52-2.07,2.88-.68,4.04,1.87,1.44,4.6,1.38,6.8,2.04,6.46,1.34,7.98,6.43,9.62,12.71.81,3.27,36.88,147.79,37.69,151.04.36,1.92,1.69,3.53,3.7,3.65h.18c1.92,0,3.17-1.96,3.48-3.71,2.35-6.93,3.72-14.32,5.45-21.41,3.45-14.15,6.85-28.31,10.29-42.46,3.85-15.86,7.72-31.72,11.7-47.55,3.08-12.26,6.15-24.54,9.68-36.69,2.09-7.21,3.92-14.67,12.74-16.16,3.95-.66,8,.1,11.85,1.23,1.33.39,2.7.85,3.7,1.81,1.31,1.25,1.77,3.15,1.86,4.96.6,12.24.05,24.67.05,36.92v100.22s-.06,1.55-.08,2.02c-.49,6.7-2.48,10.53-8.97,12.14-2.29.73-5.01.4-7.07,1.68-1.06.79-1.24,2.5-.47,3.54.49.72,1.83,1.03,2.54,1.1,2.82.09,31.41.04,34.34.04,1.17,0,3.2-.39,3.57-1.84,1.42-6.78-12.91-.66-15.63-11.82-1.94-6.65-.33-97.65-.83-129.16.34-3.08,2.49-2.23,3.27.09,5.47,11.84,62.72,135.88,64.31,139.29,1.19,2.73,3.86,5.76,6.35,5.53h.2c3.91-.06,5.36-3.69,5.31-7.33.04-7.28,0-14.55,0-21.83,0-15.19,0-30.38,0-45.57,0-15.96,0-31.92,0-47.88,0-6.04,0-12.08,0-18.11,0-5.16-.46-10.61.01-15.71.19-2.11.72-4.2,2-5.92.8-1.08,1.84-1.95,2.97-2.67,6.24-4.02,14.69-3.26,21.21.28,1.43.78,2.86,1.74,3.58,3.2.59,1.21.63,2.6.63,3.94.06,9.5-.2,19-.2,28.5v102.58c0,2.87,0,5.74,0,8.61,0,1.23-.17,3.48-.53,4.61-1.55,5.53-10.02,4.28-14.39,6.21-2.97,1.45-1.82,4.81,1.29,4.92l.14.02c1.67.03,16.45.04,28.35.04.72,0,6.38,0,12.49,0,.1,0,.21.01.3.01h32.93c.88,0,2.48-.23,3.1-1.22,2.24-3.52-3.99-4.17-5.82-4.46-3.17-.5-8.82-1.91-8.98-5.95-.07-1.82.9-4.03,1.58-5.69.74-1.78,1.67-3.47,2.74-5.07,4.58-6.85,11.36-11.94,17.77-16.94,6.41-4.99,13.18-10.07,17.75-16.9,2.98-4.46,4.68-9.59,4.61-14.97,1.24,5.3,2.47,10.59,3.69,15.87,4.09,12.61,6.75,25.64,10.03,38.45,1.73,7.17,1.63,10.86-7.01,11.24-1.75.25-3.96.15-5.38,1.23-1.34,1.03-1.07,3.49.64,4.05,3.02.87,38.8.13,42.36.36,4.44.18,5.09-4.14.72-5.31ZM732.9,132.53c1.3-4.71,2.61-9.41,3.9-14.13,5.48-24.9,11.96-49.52,18.23-74.25.34-1.45,1.51-1.69,1.88,0,3.74,15.2,7.43,30.54,11.05,45.89-.1-.23-.18-.45-.28-.67,4.64,22.64-21.31,29.16-34.77,43.17Z"/>
    </g>
  </g>
</svg>