<svg xmlns="http://www.w3.org/2000/svg" xmlns:xlink="http://www.w3.org/1999/xlink" width="4000" zoomAndPan="magnify" viewBox="0 0 3000 749.999995" height="1000" preserveAspectRatio="xMidYMid meet" version="1.2"><defs/><g id="99e8f5c0a5"><g style="fill:#3b3634;fill-opacity:1;"><g transform="translate(0.0468855, 621.374711)"><path style="stroke:none" d="M 117.59375 0 L 9.875 0 C 20.09375 -33.59375 29.644531 -64.960938 38.53125 -94.109375 C 47.425781 -123.265625 55.90625 -151.179688 63.96875 -177.859375 C 72.039062 -204.535156 80.113281 -231.210938 88.1875 -257.890625 C 96.257812 -284.578125 104.660156 -312.164062 113.390625 -340.65625 C 122.117188 -369.144531 131.421875 -399.859375 141.296875 -432.796875 C 144.921875 -444.328125 149.53125 -455.113281 155.125 -465.15625 C 160.726562 -475.207031 167.894531 -483.359375 176.625 -489.609375 C 185.351562 -495.867188 195.644531 -499 207.5 -499 C 219.6875 -499 230.0625 -495.867188 238.625 -489.609375 C 247.195312 -483.359375 254.363281 -475.207031 260.125 -465.15625 C 265.882812 -455.113281 270.410156 -444.328125 273.703125 -432.796875 C 283.585938 -399.859375 292.894531 -369.144531 301.625 -340.65625 C 310.351562 -312.164062 318.75 -284.578125 326.8125 -257.890625 C 334.882812 -231.210938 343.035156 -204.535156 351.265625 -177.859375 C 359.503906 -151.179688 367.988281 -123.265625 376.71875 -94.109375 C 385.445312 -64.960938 394.914062 -33.59375 405.125 0 L 329.546875 0 C 319.328125 -34.25 309.851562 -65.945312 301.125 -95.09375 C 292.394531 -124.25 284.082031 -152.332031 276.1875 -179.34375 L 111.15625 -179.34375 C 110.5 -152.007812 110.332031 -126.15625 110.65625 -101.78125 C 110.988281 -77.40625 111.8125 -56.238281 113.125 -38.28125 C 114.445312 -20.332031 115.9375 -7.570312 117.59375 0 Z M 111.65625 -186.75 L 273.703125 -186.75 C 266.128906 -212.769531 258.390625 -238.539062 250.484375 -264.0625 C 242.578125 -289.59375 234.425781 -316.191406 226.03125 -343.859375 C 217.632812 -371.535156 208.332031 -401.179688 198.125 -432.796875 C 196.476562 -438.398438 194.171875 -442.847656 191.203125 -446.140625 C 188.234375 -449.429688 183.953125 -451.078125 178.359375 -451.078125 C 169.460938 -451.078125 161.554688 -445.972656 154.640625 -435.765625 C 147.722656 -425.554688 141.789062 -411.640625 136.84375 -394.015625 C 131.90625 -376.390625 127.707031 -356.296875 124.25 -333.734375 C 120.789062 -311.171875 118.070312 -287.289062 116.09375 -262.09375 C 114.125 -236.894531 112.644531 -211.78125 111.65625 -186.75 Z M 111.65625 -186.75 "/></g></g><g style="fill:#3b3634;fill-opacity:1;"><g transform="translate(415.0523, 621.374711)"><path style="stroke:none" d="M 106.21875 0 L 34.578125 0 L 34.578125 -494.0625 L 285.078125 -494.0625 C 303.191406 -494.0625 318.09375 -489.78125 329.78125 -481.21875 C 341.476562 -472.65625 350.289062 -461.867188 356.21875 -448.859375 C 362.144531 -435.847656 365.109375 -422.585938 365.109375 -409.078125 C 365.109375 -389.316406 361.15625 -372.4375 353.25 -358.4375 C 345.34375 -344.4375 335.210938 -332.578125 322.859375 -322.859375 C 310.515625 -313.148438 297.34375 -305.082031 283.34375 -298.65625 C 269.34375 -292.238281 256.164062 -286.640625 243.8125 -281.859375 C 231.46875 -277.085938 221.34375 -272.640625 213.4375 -268.515625 C 205.53125 -264.398438 201.578125 -259.875 201.578125 -254.9375 C 201.578125 -250 204.289062 -241.847656 209.71875 -230.484375 C 215.15625 -219.117188 222.566406 -205.695312 231.953125 -190.21875 C 241.347656 -174.738281 251.804688 -158.515625 263.328125 -141.546875 C 274.859375 -124.585938 286.800781 -107.875 299.15625 -91.40625 C 311.507812 -74.9375 323.363281 -60.03125 334.71875 -46.6875 C 346.082031 -33.34375 356.375 -22.71875 365.59375 -14.8125 C 374.820312 -6.914062 381.90625 -2.96875 386.84375 -2.96875 L 386.84375 0 L 305.328125 0 C 295.773438 0 288.445312 -0.820312 283.34375 -2.46875 C 278.238281 -4.113281 273.378906 -7.570312 268.765625 -12.84375 C 264.160156 -18.113281 257.570312 -26.347656 249 -37.546875 C 240.769531 -48.421875 231.878906 -60.691406 222.328125 -74.359375 C 212.773438 -88.023438 203.382812 -102.101562 194.15625 -116.59375 C 184.9375 -131.09375 176.539062 -145.09375 168.96875 -158.59375 C 161.394531 -172.09375 155.382812 -184.359375 150.9375 -195.390625 C 146.488281 -206.429688 144.265625 -215.082031 144.265625 -221.34375 C 144.265625 -229.25 147.882812 -236.328125 155.125 -242.578125 C 162.375 -248.835938 171.597656 -255.097656 182.796875 -261.359375 C 193.992188 -267.617188 206.015625 -274.617188 218.859375 -282.359375 C 231.710938 -290.097656 243.738281 -299.316406 254.9375 -310.015625 C 266.132812 -320.722656 275.351562 -333.816406 282.59375 -349.296875 C 289.84375 -364.773438 293.46875 -383.222656 293.46875 -404.640625 C 293.46875 -420.117188 290.75 -434.03125 285.3125 -446.375 C 279.882812 -458.726562 271.160156 -468.53125 259.140625 -475.78125 C 247.117188 -483.03125 231.390625 -486.65625 211.953125 -486.65625 L 106.21875 -486.65625 Z M 106.21875 0 "/></g></g><g style="fill:#3b3634;fill-opacity:1;"><g transform="translate(801.896641, 621.374711)"><path style="stroke:none" d="M 14.828125 -413.03125 L 14.828125 -494.0625 L 365.109375 -494.0625 L 365.109375 -413.03125 C 354.242188 -424.226562 340.738281 -435.179688 324.59375 -445.890625 C 308.457031 -456.597656 291.660156 -465.738281 274.203125 -473.3125 C 256.742188 -480.882812 240.601562 -485.164062 225.78125 -486.15625 L 225.78125 0 L 154.140625 0 L 154.140625 -486.15625 C 139.328125 -485.164062 123.191406 -480.882812 105.734375 -473.3125 C 88.273438 -465.738281 71.472656 -456.597656 55.328125 -445.890625 C 39.191406 -435.179688 25.691406 -424.226562 14.828125 -413.03125 Z M 14.828125 -413.03125 "/></g></g><g style="fill:#3b3634;fill-opacity:1;"><g transform="translate(1181.824265, 621.374711)"><path style="stroke:none" d="M 214.921875 4.9375 C 175.722656 4.9375 141.46875 -5.597656 112.15625 -26.671875 C 82.84375 -47.753906 60.113281 -77.148438 43.96875 -114.859375 C 27.832031 -152.578125 19.765625 -196.632812 19.765625 -247.03125 C 19.765625 -297.425781 27.832031 -341.476562 43.96875 -379.1875 C 60.113281 -416.90625 82.84375 -446.300781 112.15625 -467.375 C 141.46875 -488.457031 175.722656 -499 214.921875 -499 C 244.234375 -499 270.828125 -492.988281 294.703125 -480.96875 C 318.585938 -468.945312 339.175781 -451.816406 356.46875 -429.578125 C 373.757812 -407.347656 387.015625 -380.832031 396.234375 -350.03125 C 405.460938 -319.238281 410.078125 -284.90625 410.078125 -247.03125 C 410.078125 -209.15625 405.460938 -174.816406 396.234375 -144.015625 C 387.015625 -113.222656 373.757812 -86.707031 356.46875 -64.46875 C 339.175781 -42.238281 318.585938 -25.113281 294.703125 -13.09375 C 270.828125 -1.070312 244.234375 4.9375 214.921875 4.9375 Z M 96.84375 -247.53125 C 96.84375 -198.445312 101.695312 -155.539062 111.40625 -118.8125 C 121.125 -82.09375 134.875 -53.519531 152.65625 -33.09375 C 170.445312 -12.675781 191.035156 -2.46875 214.421875 -2.46875 C 238.140625 -2.46875 258.890625 -12.675781 276.671875 -33.09375 C 294.460938 -53.519531 308.296875 -82.09375 318.171875 -118.8125 C 328.054688 -155.539062 333 -198.445312 333 -247.53125 C 333 -296.601562 328.054688 -339.421875 318.171875 -375.984375 C 308.296875 -412.546875 294.460938 -441.035156 276.671875 -461.453125 C 258.890625 -481.878906 238.140625 -492.09375 214.421875 -492.09375 C 191.035156 -492.09375 170.445312 -481.878906 152.65625 -461.453125 C 134.875 -441.035156 121.125 -412.546875 111.40625 -375.984375 C 101.695312 -339.421875 96.84375 -296.601562 96.84375 -247.53125 Z M 96.84375 -247.53125 "/></g></g><g style="fill:#3b3634;fill-opacity:1;"><g transform="translate(1611.651239, 621.374711)"><path style="stroke:none" d="M 9.875 -494.0625 L 117.59375 -494.0625 C 115.9375 -486.8125 114.613281 -474.953125 113.625 -458.484375 C 112.644531 -442.015625 112.070312 -422.332031 111.90625 -399.4375 C 111.738281 -376.550781 112.066406 -352.097656 112.890625 -326.078125 C 113.710938 -300.054688 115.191406 -273.707031 117.328125 -247.03125 C 119.472656 -220.351562 122.191406 -194.828125 125.484375 -170.453125 C 128.785156 -146.078125 132.820312 -124.335938 137.59375 -105.234375 C 142.375 -86.128906 147.972656 -70.976562 154.390625 -59.78125 C 160.816406 -48.582031 168.144531 -42.984375 176.375 -42.984375 C 181.976562 -42.984375 186.425781 -44.300781 189.71875 -46.9375 C 193.007812 -49.570312 195.8125 -54.347656 198.125 -61.265625 C 208.65625 -94.203125 218.285156 -124.914062 227.015625 -153.40625 C 235.742188 -181.894531 244.144531 -209.394531 252.21875 -235.90625 C 260.289062 -262.425781 268.273438 -289.109375 276.171875 -315.953125 C 284.078125 -342.796875 292.394531 -370.789062 301.125 -399.9375 C 309.851562 -429.09375 319.328125 -460.46875 329.546875 -494.0625 L 405.125 -494.0625 C 394.914062 -460.46875 385.445312 -429.09375 376.71875 -399.9375 C 367.988281 -370.789062 359.503906 -342.878906 351.265625 -316.203125 C 343.035156 -289.523438 334.882812 -262.84375 326.8125 -236.15625 C 318.75 -209.476562 310.351562 -181.894531 301.625 -153.40625 C 292.894531 -124.914062 283.585938 -94.203125 273.703125 -61.265625 C 270.410156 -50.066406 265.882812 -39.359375 260.125 -29.140625 C 254.363281 -18.929688 247.195312 -10.695312 238.625 -4.4375 C 230.0625 1.8125 219.6875 4.9375 207.5 4.9375 C 195.644531 4.9375 185.351562 1.8125 176.625 -4.4375 C 167.894531 -10.695312 160.726562 -18.929688 155.125 -29.140625 C 149.53125 -39.359375 144.921875 -50.066406 141.296875 -61.265625 C 131.085938 -94.203125 121.703125 -124.914062 113.140625 -153.40625 C 104.578125 -181.894531 96.257812 -209.476562 88.1875 -236.15625 C 80.113281 -262.84375 72.039062 -289.523438 63.96875 -316.203125 C 55.90625 -342.878906 47.425781 -370.789062 38.53125 -399.9375 C 29.644531 -429.09375 20.09375 -460.46875 9.875 -494.0625 Z M 9.875 -494.0625 "/></g></g><g style="fill:#3b3634;fill-opacity:1;"><g transform="translate(2026.656654, 621.374711)"><path style="stroke:none" d="M 34.578125 0 L 34.578125 -494.0625 C 37.210938 -495.707031 40.753906 -496.941406 45.203125 -497.765625 C 49.648438 -498.585938 53.519531 -499 56.8125 -499 C 71.632812 -499 84.394531 -495.785156 95.09375 -489.359375 C 105.800781 -482.941406 115.6875 -473.144531 124.75 -459.96875 C 133.8125 -446.789062 143.363281 -430.15625 153.40625 -410.0625 C 163.445312 -389.976562 174.972656 -366.347656 187.984375 -339.171875 C 200.992188 -311.992188 216.722656 -281.28125 235.171875 -247.03125 C 259.878906 -201.25 280.628906 -165.59375 297.421875 -140.0625 C 314.222656 -114.539062 327.894531 -96.015625 338.4375 -84.484375 C 347.320312 -74.929688 354.316406 -69 359.421875 -66.6875 C 364.535156 -64.382812 368.242188 -63.726562 370.546875 -64.71875 C 372.847656 -65.707031 374 -66.203125 374 -66.203125 C 374 -127.796875 370.539062 -183.867188 363.625 -234.421875 C 356.707031 -284.984375 346.332031 -331.507812 332.5 -374 C 318.664062 -416.488281 301.210938 -456.507812 280.140625 -494.0625 L 382.890625 -494.0625 L 382.890625 0 C 380.265625 1.3125 376.804688 2.460938 372.515625 3.453125 C 368.234375 4.441406 364.285156 4.9375 360.671875 4.9375 C 345.515625 4.9375 330.113281 -0.820312 314.46875 -12.34375 C 298.820312 -23.875 283.007812 -39.6875 267.03125 -59.78125 C 251.0625 -79.875 235.253906 -102.847656 219.609375 -128.703125 C 203.960938 -154.554688 188.566406 -181.976562 173.421875 -210.96875 C 149.703125 -256.09375 130.59375 -293.394531 116.09375 -322.875 C 101.601562 -352.351562 90.738281 -374.007812 83.5 -387.84375 C 76.582031 -401.007812 70.570312 -410.804688 65.46875 -417.234375 C 60.363281 -423.660156 56.242188 -427.859375 53.109375 -429.828125 C 49.984375 -431.804688 47.597656 -432.628906 45.953125 -432.296875 C 44.304688 -431.972656 43.484375 -431.8125 43.484375 -431.8125 C 43.484375 -368.894531 46.941406 -311.910156 53.859375 -260.859375 C 60.773438 -209.804688 71.226562 -162.953125 85.21875 -120.296875 C 99.21875 -77.648438 116.59375 -37.550781 137.34375 0 Z M 34.578125 0 "/></g></g><g style="fill:#3b3634;fill-opacity:1;"><g transform="translate(2444.132524, 621.374711)"><path style="stroke:none" d="M 34.578125 0 L 34.578125 -494.0625 L 106.21875 -494.0625 L 106.21875 0 Z M 34.578125 0 "/></g></g><g style="fill:#3b3634;fill-opacity:1;"><g transform="translate(2584.937877, 621.374711)"><path style="stroke:none" d="M 117.59375 0 L 9.875 0 C 20.09375 -33.59375 29.644531 -64.960938 38.53125 -94.109375 C 47.425781 -123.265625 55.90625 -151.179688 63.96875 -177.859375 C 72.039062 -204.535156 80.113281 -231.210938 88.1875 -257.890625 C 96.257812 -284.578125 104.660156 -312.164062 113.390625 -340.65625 C 122.117188 -369.144531 131.421875 -399.859375 141.296875 -432.796875 C 144.921875 -444.328125 149.53125 -455.113281 155.125 -465.15625 C 160.726562 -475.207031 167.894531 -483.359375 176.625 -489.609375 C 185.351562 -495.867188 195.644531 -499 207.5 -499 C 219.6875 -499 230.0625 -495.867188 238.625 -489.609375 C 247.195312 -483.359375 254.363281 -475.207031 260.125 -465.15625 C 265.882812 -455.113281 270.410156 -444.328125 273.703125 -432.796875 C 283.585938 -399.859375 292.894531 -369.144531 301.625 -340.65625 C 310.351562 -312.164062 318.75 -284.578125 326.8125 -257.890625 C 334.882812 -231.210938 343.035156 -204.535156 351.265625 -177.859375 C 359.503906 -151.179688 367.988281 -123.265625 376.71875 -94.109375 C 385.445312 -64.960938 394.914062 -33.59375 405.125 0 L 329.546875 0 C 319.328125 -34.25 309.851562 -65.945312 301.125 -95.09375 C 292.394531 -124.25 284.082031 -152.332031 276.1875 -179.34375 L 111.15625 -179.34375 C 110.5 -152.007812 110.332031 -126.15625 110.65625 -101.78125 C 110.988281 -77.40625 111.8125 -56.238281 113.125 -38.28125 C 114.445312 -20.332031 115.9375 -7.570312 117.59375 0 Z M 111.65625 -186.75 L 273.703125 -186.75 C 266.128906 -212.769531 258.390625 -238.539062 250.484375 -264.0625 C 242.578125 -289.59375 234.425781 -316.191406 226.03125 -343.859375 C 217.632812 -371.535156 208.332031 -401.179688 198.125 -432.796875 C 196.476562 -438.398438 194.171875 -442.847656 191.203125 -446.140625 C 188.234375 -449.429688 183.953125 -451.078125 178.359375 -451.078125 C 169.460938 -451.078125 161.554688 -445.972656 154.640625 -435.765625 C 147.722656 -425.554688 141.789062 -411.640625 136.84375 -394.015625 C 131.90625 -376.390625 127.707031 -356.296875 124.25 -333.734375 C 120.789062 -311.171875 118.070312 -287.289062 116.09375 -262.09375 C 114.125 -236.894531 112.644531 -211.78125 111.65625 -186.75 Z M 111.65625 -186.75 "/></g></g></g></svg>